<?xml version="1.0" encoding="UTF-8" standalone="no"?><!DOCTYPE svg PUBLIC "-//W3C//DTD SVG 1.1//EN" "http://www.w3.org/Graphics/SVG/1.1/DTD/svg11.dtd"><svg width="100%" height="100%" viewBox="0 0 1000 1000" version="1.1" xmlns="http://www.w3.org/2000/svg" xmlns:xlink="http://www.w3.org/1999/xlink" xml:space="preserve" style="fill-rule:evenodd;clip-rule:evenodd;stroke-linejoin:round;stroke-miterlimit:1.41421;"><g><path d="M619.573,43.047c-11.892,22.076 -19.893,67.23 -20.28,149.567c-0.883,188.204 30.229,257.337 74.279,260.86c9.305,0.744 21.213,0.838 32.358,-9.293l250.851,175.221c-22.075,-11.893 -67.23,-19.894 -149.567,-20.281c-188.204,-0.883 -257.337,30.229 -260.86,74.28c-0.744,9.304 -0.838,21.212 9.293,32.357l-175.039,250.592c11.81,-22.175 19.746,-67.296 20.131,-149.289c0.884,-188.204 -30.229,-257.337 -74.279,-260.86c-9.306,-0.744 -21.215,-0.838 -32.36,9.295l-250.881,-175.241c22.075,11.892 67.23,19.894 149.567,20.28c188.204,0.884 257.337,-30.228 260.86,-74.279c0.744,-9.305 0.838,-21.213 -9.293,-32.357l175.22,-250.852ZM500,440.899c32.524,0 58.929,26.405 58.929,58.929c0,32.524 -26.405,58.93 -58.929,58.93c-32.524,0 -58.929,-26.406 -58.929,-58.93c0,-32.524 26.405,-58.929 58.929,-58.929Z" style="fill:#000;"/><path d="M500,440.183c32.999,0 59.791,26.792 59.791,59.791c0,32.999 -26.792,59.791 -59.791,59.791c-32.999,0 -59.791,-26.792 -59.791,-59.791c0,-32.999 26.792,-59.791 59.791,-59.791ZM500,445.609c30.005,0 54.365,24.36 54.365,54.365c0,30.005 -24.36,54.365 -54.365,54.365c-30.005,0 -54.365,-24.36 -54.365,-54.365c0,-30.005 24.36,-54.365 54.365,-54.365Z" style="fill:#dcdcdc;"/><path d="M698.607,449.427c2.454,-1.333 4.906,-3.049 7.323,-5.246l250.851,175.221c-7.334,-3.952 -17.217,-7.473 -30.164,-10.429l-228.01,-159.546Z" style="fill:#dcdcdc;"/><path d="M449.604,301.231c-1.334,-2.457 -3.051,-4.913 -5.251,-7.332l175.22,-250.852c-3.954,7.339 -7.477,17.23 -10.434,30.191l-159.535,227.993Z" style="fill:#dcdcdc;"/><path d="M301.233,550.353c-2.391,1.318 -4.779,3.003 -7.133,5.143l-250.881,-175.241c7.24,3.9 16.962,7.382 29.664,10.314l228.35,159.784Z" style="fill:#dcdcdc;"/><path d="M550.486,698.589c1.32,2.403 3.01,4.803 5.161,7.169l-175.039,250.592c3.859,-7.246 7.305,-16.943 10.208,-29.576l159.67,-228.185Z" style="fill:#dcdcdc;"/></g></svg>